<?xml version="1.0" encoding="UTF-8"?>
<svg width="96px" height="72px" viewBox="0 0 96 72" version="1.1" xmlns="http://www.w3.org/2000/svg" xmlns:xlink="http://www.w3.org/1999/xlink">
    <!-- Generator: Sketch 52.5 (67469) - http://www.bohemiancoding.com/sketch -->
    <title>gmail</title>
    <desc>Created with Sketch.</desc>
    <g id="Page-1" stroke="none" stroke-width="1" fill="none" fill-rule="evenodd">
        <g id="Components" transform="translate(-94.000000, -767.000000)" fill="#909090" fill-rule="nonzero">
            <g id="gmail" transform="translate(94.000000, 767.000000)">
                <path d="M9,0 C4.0625,0 0.023438,4.03125 0,8.96875 C0,8.96875 0,8.976562 0,8.984376 C0,8.992188 0,8.992188 0,9 L0,63 C0,67.945312 4.054688,72 9,72 L87,72 C91.945312,72 96,67.945312 96,63 L96,9 C96,8.992188 96,8.992188 96,8.984376 C96,8.976562 96,8.96875 96,8.96875 C95.976562,4.03125 91.9375,0 87,0 L9,0 Z M14.203126,4 L81.804688,4 L48,27.5625 L14.203126,4 Z M7.546876,4.234376 L48,32.4375 L88.460938,4.234376 C90.507812,4.851562 91.984376,6.710938 92,8.976562 C91.992188,9.398438 91.5625,10.242188 90.9375,10.921876 C90.304688,11.609376 89.6875,12.039062 89.6875,12.039062 L89.679688,12.054688 L48,41.554688 L6.320312,12.054688 L6.3125,12.039062 C6.3125,12.039062 5.695312,11.609376 5.0625,10.921876 C4.4375,10.242188 4.007812,9.398438 4,8.976562 C4.015626,6.710938 5.492188,4.851562 7.546876,4.234376 Z M4,15.304688 C4,15.304688 4.015626,15.320312 4.015626,15.320312 L4.03125,15.328126 L4.03125,15.335938 L10,19.554688 L10,68 L9,68 C6.21875,68 4,65.78125 4,63 L4,15.304688 Z M92,15.304688 L92,63 C92,65.78125 89.78125,68 87,68 L86,68 L86,19.554688 L91.96875,15.335938 L91.96875,15.328126 C91.96875,15.328126 92,15.304688 92,15.304688 Z M14,22.382812 L48,46.445312 L82,22.382812 L82,68 L14,68 L14,22.382812 Z" id="Shape"></path>
            </g>
        </g>
    </g>
</svg>