<?xml version="1.0" encoding="UTF-8"?>
<svg width="88px" height="88px" viewBox="0 0 88 88" version="1.1" xmlns="http://www.w3.org/2000/svg" xmlns:xlink="http://www.w3.org/1999/xlink">
    <!-- Generator: Sketch 52.5 (67469) - http://www.bohemiancoding.com/sketch -->
    <title>instagram</title>
    <desc>Created with Sketch.</desc>
    <g id="Page-1" stroke="none" stroke-width="1" fill="none" fill-rule="evenodd">
        <g id="Components" transform="translate(-289.000000, -789.000000)" fill="#909090" fill-rule="nonzero">
            <g id="instagram" transform="translate(289.000000, 789.000000)">
                <path d="M26,0 C11.6649678,0 0,11.6649678 0,26 L0,62 C0,76.335032 11.6649678,88 26,88 L62,88 C76.335032,88 88,76.335032 88,62 L88,26 C88,11.6649678 76.335032,0 62,0 L26,0 Z M26,4 L62,4 C74.172968,4 84,13.8270322 84,26 L84,62 C84,74.172968 74.172968,84 62,84 L26,84 C13.8270322,84 4,74.172968 4,62 L4,26 C4,13.8270322 13.8270322,4 26,4 Z M68,16 C65.790861,16 64,17.790861 64,20 C64,22.209139 65.790861,24 68,24 C70.209139,24 72,22.209139 72,20 C72,17.790861 70.209139,16 68,16 Z M44,22 C31.873424,22 22,31.873424 22,44 C22,56.126576 31.873424,66 44,66 C56.126576,66 66,56.126576 66,44 C66,31.873424 56.126576,22 44,22 Z M44,26 C53.964814,26 62,34.035186 62,44 C62,53.964814 53.964814,62 44,62 C34.035186,62 26,53.964814 26,44 C26,34.035186 34.035186,26 44,26 Z" id="Shape"></path>
            </g>
        </g>
    </g>
</svg>