<svg xmlns="http://www.w3.org/2000/svg" viewBox="0 0 1716.66 434.91"><defs><style>.cls-1{fill:#fdfdfd;}.cls-2{fill:#007b1b;}.cls-3{fill:#007b1a;}.cls-4{fill:#007d15;}.cls-5{fill:#007c15;}.cls-6{fill:#017d16;}.cls-7{fill:#fbfe00;}</style></defs><g id="Layer_2" data-name="Layer 2"><g id="Layer_1-2" data-name="Layer 1"><path class="cls-1" d="M.22,332.1Q.37,208.41.22,84.73c0-3.8,1.34-4.22,4.58-4.21q74.24.14,148.47.06H298.73c19.37,0,33.9,14.11,33.93,33.48q.15,109.2.12,218.39c0,3.4-1,4.07-4.22,4.05-24.5-.13-49-.16-73.49,0-3.78,0-4.66-.91-4.65-4.65.13-56.31,0-112.61.22-168.91,0-5.14-1.27-6.46-6.33-6.26-10.65.42-21.33.33-32,0-4.09-.12-4.93,1.21-4.92,5.05.12,56.31,0,112.61.18,168.91,0,4.42-.85,5.89-5.64,5.83-24.16-.28-48.32-.2-72.48-.05-3.46,0-4.47-.81-4.46-4.36.1-57,0-113.94.15-170.91,0-3.65-.93-4.51-4.39-4.45-11.16.19-22.33.27-33.49,0-3.93-.11-4.6,1.19-4.59,4.78.12,56.64,0,113.28.19,169.91,0,4.24-1.17,5.11-5.22,5.08q-36.48-.3-73,0C1.14,336.53.22,335.57.22,332.1Z"/><path class="cls-1" d="M592.6,115.53a32.74,32.74,0,0,0-33.17-32.78q-81.22,0-162.47,0c-17.73,0-29.49,9.52-33.56,26.68-1.26,5.3-.82,10.6-.82,15.9q-.07,88.71,0,177.42c0,19.1,14.28,34.19,32.43,34.23,46.66.08,93.31,0,140,.07,3,0,4.42-.89,5.59-3.64,4.62-10.85,9.52-21.58,14.29-32.37,6.23-14.07,12.45-28.15,18.84-42.6h-5q-55.74,0-111.48,0c-3.8,0-8.79,1.3-11.11-.6-2.72-2.22-.31-7.46-1-11.31-.79-4.33,1-5.07,5-5.05,39,.16,78,.08,117,.13,4.22,0,8.22-.41,12-2.6,9.22-5.4,13.44-13.76,13.5-24Q592.88,165.26,592.6,115.53Zm-84.82,68c-9.82-.09-19.63,0-29.45,0-9.65,0-19.3-.1-28.95.06-3,.05-4.44-.35-4.16-4a154.55,154.55,0,0,0,.07-16.95c-.08-2.45.24-3.55,3.1-3.53q30.19.18,60.39,0c2.41,0,3.11.78,3,3.19-.2,5.82-.32,11.66,0,17.46C512,183.18,510.53,183.58,507.78,183.55Z"/><path class="cls-1" d="M851.66,85.48q-.17,155.69-.09,311.37c0,12.59-4.66,18.28-16.92,20.72a63,63,0,0,1-12.42,1.06q-255.45-.22-510.91-.42Q158.89,418,6.45,417.67H0l25.15-47.89c2.4-4.57,5.12-9,7.11-13.73,1.55-3.69,3.75-4.56,7.59-4.56q203,.17,405.93.1,158.73,0,317.45.09c4.17,0,5.6-.63,5.58-5.32q-.3-91.71-.07-183.42c0-3.77-.7-5.07-4.87-5-17.83.26-35.66.14-53.49,0-3.32,0-4.52.55-4.49,4.35q.3,46.73,0,93.46c0,4,.77,5.08,4.81,5,16.49-.24,33,0,49.49-.2,4-.05,5.37.65,5.32,5-.25,22.82-.21,45.64,0,68.47,0,3.8-1,4.66-4.73,4.64-33.83-.15-67.66-.57-101.48.08-21,.4-35.45-15-35.53-34.8q-.36-94.46,0-188.92c.08-18.27,13.33-34.46,34.91-34.29,62.8.5,125.62.19,188.42,0C850.93,80.79,851.67,81.82,851.66,85.48Z"/><path class="cls-1" d="M1031.05,366.09c0,5.1-2.64,4.64-6,4.63-25.81-.05-51.62.06-77.43-.12-3.92,0-5.8.57-5.27,5,.56,4.76-1.94,11.08.87,14,3.06,3.17,9.45,1,14.37,1,18.82.13,37.64.24,56.45-.07,5.21-.09,4.35,3.15,4.71,6.05.51,4.14-2.57,2.92-4.63,2.92-22,0-44,.12-65.94-.07-4.13,0-5.5,1.09-5.32,5.31.39,8.81.18,17.64.4,26.45.07,2.83-.84,3.8-3.71,3.69-5.66-.21-11.33-.24-17,0-2.75.1-3.31-.9-3.31-3.41q0-26.47-.3-52.93c0-4.15-.13-8.32-.54-12.44-.36-3.66,1.15-4.4,4.53-4.37,17.31.16,34.63.08,52,.08,16.82,0,33.63,0,50.45,0C1028.47,361.77,1031,361.2,1031.05,366.09Z"/><path class="cls-1" d="M1104.56,119.26a54.92,54.92,0,0,0-1-9.91c-2.74-15-15.62-26.52-30.12-26.55-47.31-.12-94.62,0-141.92-.11-2.54,0-3.89.74-4.87,3.09-2.69,6.43-5.6,12.77-8.43,19.15l-24.62,55.51c2,1.07,3.8.6,5.56.6q55.47,0,110.94,0c12.3,0,12.09,0,12.41,12,.11,4.14-1.26,4.8-5,4.79-38.64-.13-77.3.36-115.93-.28a26.54,26.54,0,0,0-27.14,27.27c.4,10.31,0,20.65,0,31,0,23.48-.28,47,.26,70.44.4,16.78,15,30.7,31.53,30.74q83.21.17,166.41,0a29.33,29.33,0,0,0,19.63-7.45c8.93-7.77,12.28-17.89,12.28-29.39Q1104.61,209.69,1104.56,119.26Zm-86.19,141.39c-10-.14-20,0-30,0-9.82,0-19.65-.1-29.46.07-3.09.05-4.12-1-4-4,.18-5.65.15-11.32,0-17-.07-3.1.77-3.4,4-3.34,19.8.33,39.61.26,59.42-.09,3.25-.05,4.13.45,4.06,3.52-.13,5.66-.18,11.32,0,17C1022.59,259.94,1021.31,260.7,1018.37,260.65Z"/><path class="cls-1" d="M1119.58,432.15c.36,3.06-1.75,2.59-3.52,2.59h-31c-10.32,0-20.64-.09-31,.07-3,0-4-.95-4.07-4-.1-3.27,1.25-4,4.11-3.87,5,.14,10-.06,15,.07,2.66.07,3.81-.53,3.76-3.61q-.39-25-.29-49.93c0-3.52-1.28-4.17-4.37-4-5.15.22-10.32-.07-15.48.15-3.26.13-3.29-1.73-3.38-4.1s.48-3.76,3.23-3.75q31.73.08,63.44,0c3.88,0,2.33,2.77,2.59,4.58.32,2.16-.24,3.32-2.92,3.2-5.32-.22-10.65.11-16,0-2.64-.08-3.43.82-3.41,3.42q.2,25.46.13,50.93c0,3,1.14,3.47,4,3.29,5.29-.34,10.63,0,15.94-.15C1120.56,426.87,1119.31,429.88,1119.58,432.15Z"/><path class="cls-1" d="M1268.83,430.24c.06,4-1.39,4.51-4.87,4.47-16.66-.17-33.32-.07-50-.07s-33.33-.08-50,.07c-3.22,0-4.62-.4-4.58-4.18.19-21.82.15-43.65,0-65.47,0-3.05.74-4.08,3.86-3.9a114.56,114.56,0,0,0,14,0c4.07-.26,5.46,1,5.4,5.26-.24,18,.07,36-.22,54-.07,4.57,1.35,5.47,5.62,5.43,25.33-.2,50.66,0,76-.19C1267.74,425.6,1268.77,426.44,1268.83,430.24Z"/><path class="cls-1" d="M1397.41,365.44c0,3.45-.86,4.5-4.43,4.47-17.82-.18-35.64,0-53.46-.15-3.64,0-4.87.73-4.79,4.62.25,12.32-.22,24.65.14,37,.19,6.45.68,12.9.78,19.38,0,3.08-1,4.09-4.05,4-5.15-.2-10.33-.26-15.48,0-3.5.19-4.48-.91-4.46-4.43.13-18.47-.12-36.95,0-55.43,0-3.84-.87-5.17-5-5.11-17.66.23-35.31.1-53,.07-2.49,0-5.17,1-5.09-3.65.06-4.09,1.67-4.59,5-4.57,23.15.08,46.3,0,69.46,0h69C1394.7,361.64,1397.42,361.08,1397.41,365.44Z"/><path class="cls-1" d="M1426.34,107.16q-.15,112.92,0,225.83c0,3.31-1,4.26-4.21,4.25-24.66-.13-49.31-.2-74,0-4,0-3.64-2.05-3.64-4.63q0-56.46,0-112.91c0-37.31,0-74.62-.1-111.92,0-3.85.85-5,4.87-5,24.16.19,48.31.14,72.47,0C1425.15,102.79,1426.34,103.56,1426.34,107.16Z"/><path class="cls-1" d="M1536.89,430.74c-.1,3.52-1.41,4-4.4,3.95-18-.11-36-.05-54-.05-17.82,0-35.64-.08-53.46.07-3.08,0-3.89-.81-3.91-3.88q-.18-32.43-.79-64.86c-.07-3.54.57-4.81,4.52-4.79q53.46.26,106.93,0c4.36,0,4.11,2.05,4.4,5.1.34,3.77-1.53,4.06-4.42,4.05-27.31-.05-54.63.05-82-.15-4.23,0-6.13.77-5.54,5.39a45.52,45.52,0,0,1,0,10c-.35,3.59,1,4.38,4.41,4.36,27.81-.15,55.63,0,83.44-.15,3.3,0,4.61.57,4.69,4.28.1,4.09-1.29,4.87-5.07,4.85-27.49-.14-55,0-82.45-.16-3.91,0-5.35,1-5,5a149.18,149.18,0,0,1,.52,17.43c-.13,3.91,1.27,4.65,4.88,4.63,27.32-.15,54.64,0,82-.19C1535.82,425.54,1537,426.55,1536.89,430.74Z"/><path class="cls-1" d="M1174,163.7c-14.49.21-29,0-43.48.18-3.51,0-5-.54-4.9-4.56.24-17.15.19-34.31,0-51.47,0-3.51,1-4.47,4.46-4.42,14.5.19,29,0,43.49.19,3.64,0,4.43-1.13,4.41-4.51q-.21-32.49-.06-65c.1-16.31,10.06-29,25.67-33.39a32.36,32.36,0,0,1,8.92-.72q139.44,0,278.89,0h73.11c-4.41,9.28-8.53,17.92-12.63,26.58-7.91,16.67-15.88,33.31-23.65,50.05-1.23,2.65-2.65,3.63-5.61,3.62q-129.7-.15-259.42-.22c-3.13,0-3.62.93-3.54,3.62.16,5.49.22,11,0,16.49-.13,3,1,3.51,3.76,3.48,14.66-.16,29.32,0,44-.21,3.46,0,4.47.8,4.42,4.36-.21,17.15-.25,34.31,0,51.47,0,3.84-1.1,4.69-4.76,4.63-14.16-.22-28.33.08-42.48-.22-4-.08-5,.89-4.94,4.86.15,54.31.06,108.61.24,162.92,0,4.58-1.15,5.75-5.7,5.71-24.16-.24-48.32-.21-72.48,0-3.26,0-3.79-.91-3.79-3.89.09-55.14,0-110.27.16-165.41C1178,164.44,1177.3,163.65,1174,163.7Z"/><path class="cls-1" d="M1660.18,337.69q-99.24-.18-198.47,0c-3.37,0-4.17-.87-4.16-4.12q.14-113.2,0-226.41c0-3.6,1.06-4.37,4.48-4.35q37,.21,74,0c3.77,0,4.64,1,4.63,4.67-.14,48.48,0,97-.21,145.44,0,4.57,1.07,5.73,5.71,5.71,49.83-.2,99.66-.14,149.48-.14,1.13,0,2.26.09,3.81.16-9,19.77-17.86,39.24-26.7,58.71-2.55,5.6-5.09,11.19-7.48,16.86C1664.25,336.56,1663.13,337.7,1660.18,337.69Z"/><path class="cls-1" d="M1654.3,403.2c2.25-1.76,4.64-1.77,6.84-2.29,6.48-1.54,12.78-3.57,18.46-7.15,4.89-3.08,8.4-7.08,8-13.37-.38-5.76-4.31-8.69-8.9-11-10-5-20.77-6.78-31.68-7.43-23.12-1.38-46.28-.47-69.42-.79-3.8,0-5.07.8-5,4.88.22,21.8.17,43.6.87,65.4.09,2.85,1,3.28,3.46,3.23,5.5-.12,11-.24,16.49,0,3.53.19,4.21-1.29,4-4.38-.39-6.8-.42-13.61-.84-20.4-.19-3.14.59-4.37,4-4.28,8.32.21,16.65,0,25-.06a15.33,15.33,0,0,1,7.15,1.7c10.36,5.24,20.87,10.18,31.22,15.42,24,12.19,24,12.24,49.6,11.89,1,0,2.38.72,3.12-1.33Zm-35.48-6.82v.52c-6.33,0-12.66,0-19,0-2.12,0-3.39-.24-3.34-2.91.14-7,0-14-.06-21,0-1.8.11-3.28,2.6-3.21,17.57.55,35.28-1.54,52.65,2.67a24.66,24.66,0,0,1,6.46,2.47c6.52,3.74,6.68,11,.39,15.27s-13.48,5.52-20.75,6C1631.49,396.74,1625.14,396.38,1618.82,396.38Z"/><path class="cls-2" d="M851.66,85.48q-.17,155.69-.09,311.37c0,12.59-4.66,18.28-16.92,20.72a63,63,0,0,1-12.42,1.06q-255.45-.22-510.91-.42Q158.89,418,6.45,417.67H0l25.15-47.89c2.4-4.57,5.12-9,7.11-13.73,1.55-3.69,3.75-4.56,7.59-4.56q203,.17,405.93.1,158.73,0,317.45.09c4.17,0,5.6-.63,5.58-5.32q-.3-91.71-.07-183.42c0-3.77-.7-5.07-4.87-5-17.83.26-35.66.14-53.49,0-3.32,0-4.52.55-4.49,4.35q.3,46.73,0,93.46c0,4,.77,5.08,4.81,5,16.49-.24,33,0,49.49-.2,4-.05,5.37.65,5.32,5-.25,22.82-.21,45.64,0,68.47,0,3.8-1,4.66-4.73,4.64-33.83-.15-67.66-.57-101.48.08-21,.4-35.45-15-35.53-34.8q-.36-94.46,0-188.92c.08-18.27,13.33-34.46,34.91-34.29,62.8.5,125.62.19,188.42,0C850.93,80.79,851.67,81.82,851.66,85.48Z"/><path class="cls-2" d="M332.78,332.45c0,3.4-1,4.07-4.22,4.05-24.5-.13-49-.16-73.49,0-3.78,0-4.66-.91-4.65-4.65.13-56.31,0-112.61.22-168.91,0-5.14-1.27-6.46-6.33-6.26-10.65.42-21.33.33-32,0-4.09-.12-4.93,1.21-4.92,5.05.12,56.31,0,112.61.18,168.91,0,4.42-.85,5.89-5.64,5.83-24.16-.28-48.32-.2-72.48-.05-3.46,0-4.47-.81-4.46-4.36.1-57,0-113.94.15-170.91,0-3.65-.93-4.51-4.39-4.45-11.16.19-22.33.27-33.49,0-3.93-.11-4.6,1.19-4.59,4.78.12,56.64,0,113.28.19,169.91,0,4.24-1.17,5.11-5.22,5.08q-36.48-.3-73,0c-3.54,0-4.46-.93-4.46-4.4Q.37,208.41.22,84.73c0-3.8,1.34-4.22,4.58-4.21q74.24.14,148.47.06H298.73c19.37,0,33.9,14.11,33.93,33.48Q332.81,223.26,332.78,332.45Z"/><path class="cls-2" d="M1564.47,0c-4.41,9.28-8.53,17.92-12.63,26.58-7.91,16.67-15.88,33.31-23.65,50.05-1.23,2.65-2.65,3.63-5.61,3.62q-129.7-.15-259.42-.22c-3.13,0-3.62.93-3.54,3.62.16,5.49.22,11,0,16.49-.13,3,1,3.51,3.76,3.48,14.66-.16,29.32,0,44-.21,3.46,0,4.47.8,4.42,4.36-.21,17.15-.25,34.31,0,51.47,0,3.84-1.1,4.69-4.76,4.63-14.16-.22-28.33.08-42.48-.22-4-.08-5,.89-4.94,4.86.15,54.31.06,108.61.24,162.92,0,4.58-1.15,5.75-5.7,5.71-24.16-.24-48.32-.21-72.48,0-3.26,0-3.79-.91-3.79-3.89.09-55.14,0-110.27.16-165.41,0-3.36-.68-4.15-4-4.1-14.49.21-29,0-43.48.18-3.51,0-5-.54-4.9-4.56.24-17.15.19-34.31,0-51.47,0-3.51,1-4.47,4.46-4.42,14.5.19,29,0,43.49.19,3.64,0,4.43-1.13,4.41-4.51q-.21-32.49-.06-65c.1-16.31,10.06-29,25.67-33.39a32.36,32.36,0,0,1,8.92-.72q139.44,0,278.89,0h73.11Z"/><path class="cls-3" d="M1104.56,119.26a54.92,54.92,0,0,0-1-9.91c-2.74-15-15.62-26.52-30.12-26.55-47.31-.12-94.62,0-141.92-.11-2.54,0-3.89.74-4.87,3.09-2.69,6.43-5.6,12.77-8.43,19.15l-24.62,55.51c2,1.07,3.8.6,5.56.6q55.47,0,110.94,0c12.3,0,12.09,0,12.41,12,.11,4.14-1.26,4.8-5,4.79-38.64-.13-77.3.36-115.93-.28a26.54,26.54,0,0,0-27.14,27.27c.4,10.31,0,20.65,0,31,0,23.48-.28,47,.26,70.44.4,16.78,15,30.7,31.53,30.74q83.21.17,166.41,0a29.33,29.33,0,0,0,19.63-7.45c8.93-7.77,12.28-17.89,12.28-29.39Q1104.61,209.69,1104.56,119.26Zm-86.19,141.39c-10-.14-20,0-30,0-9.82,0-19.65-.1-29.46.07-3.09.05-4.12-1-4-4,.18-5.65.15-11.32,0-17-.07-3.1.77-3.4,4-3.34,19.8.33,39.61.26,59.42-.09,3.25-.05,4.13.45,4.06,3.52-.13,5.66-.18,11.32,0,17C1022.59,259.94,1021.31,260.7,1018.37,260.65Z"/><path class="cls-2" d="M592.6,115.53a32.74,32.74,0,0,0-33.17-32.78q-81.22,0-162.47,0c-17.73,0-29.49,9.52-33.56,26.68-1.26,5.3-.82,10.6-.82,15.9q-.07,88.71,0,177.42c0,19.1,14.28,34.19,32.43,34.23,46.66.08,93.31,0,140,.07,3,0,4.42-.89,5.59-3.64,4.62-10.85,9.52-21.58,14.29-32.37,6.23-14.07,12.45-28.15,18.84-42.6h-5q-55.74,0-111.48,0c-3.8,0-8.79,1.3-11.11-.6-2.72-2.22-.31-7.46-1-11.31-.79-4.33,1-5.07,5-5.05,39,.16,78,.08,117,.13,4.22,0,8.22-.41,12-2.6,9.22-5.4,13.44-13.76,13.5-24Q592.88,165.26,592.6,115.53Zm-84.82,68c-9.82-.09-19.63,0-29.45,0-9.65,0-19.3-.1-28.95.06-3,.05-4.44-.35-4.16-4a154.55,154.55,0,0,0,.07-16.95c-.08-2.45.24-3.55,3.1-3.53q30.19.18,60.39,0c2.41,0,3.11.78,3,3.19-.2,5.82-.32,11.66,0,17.46C512,183.18,510.53,183.58,507.78,183.55Z"/><path class="cls-3" d="M1699.43,258.61c-9,19.77-17.86,39.24-26.7,58.71-2.55,5.6-5.09,11.19-7.48,16.86-1,2.38-2.12,3.52-5.07,3.51q-99.24-.18-198.47,0c-3.37,0-4.17-.87-4.16-4.12q.14-113.2,0-226.41c0-3.6,1.06-4.37,4.48-4.35q37,.21,74,0c3.77,0,4.64,1,4.63,4.67-.14,48.48,0,97-.21,145.44,0,4.57,1.07,5.73,5.71,5.71,49.83-.2,99.66-.14,149.48-.14C1696.75,258.45,1697.88,258.54,1699.43,258.61Z"/><path class="cls-2" d="M1426.34,333c0,3.31-1,4.26-4.21,4.25-24.66-.13-49.31-.2-74,0-4,0-3.64-2.05-3.64-4.63q0-56.46,0-112.91c0-37.31,0-74.62-.1-111.92,0-3.85.85-5,4.87-5,24.16.19,48.31.14,72.47,0,3.37,0,4.56.75,4.56,4.35Q1426.19,220.08,1426.34,333Z"/><path class="cls-4" d="M1654.3,403.2c2.25-1.76,4.64-1.77,6.84-2.29,6.48-1.54,12.78-3.57,18.46-7.15,4.89-3.08,8.4-7.08,8-13.37-.38-5.76-4.31-8.69-8.9-11-10-5-20.77-6.78-31.68-7.43-23.12-1.38-46.28-.47-69.42-.79-3.8,0-5.07.8-5,4.88.22,21.8.17,43.6.87,65.4.09,2.85,1,3.28,3.46,3.23,5.5-.12,11-.24,16.49,0,3.53.19,4.21-1.29,4-4.38-.39-6.8-.42-13.61-.84-20.4-.19-3.14.59-4.37,4-4.28,8.32.21,16.65,0,25-.06a15.33,15.33,0,0,1,7.15,1.7c10.36,5.24,20.87,10.18,31.22,15.42,24,12.19,24,12.24,49.6,11.89,1,0,2.38.72,3.12-1.33Zm-35.48-6.82v.52c-6.33,0-12.66,0-19,0-2.12,0-3.39-.24-3.34-2.91.14-7,0-14-.06-21,0-1.8.11-3.28,2.6-3.21,17.57.55,35.28-1.54,52.65,2.67a24.66,24.66,0,0,1,6.46,2.47c6.52,3.74,6.68,11,.39,15.27s-13.48,5.52-20.75,6C1631.49,396.74,1625.14,396.38,1618.82,396.38Z"/><path class="cls-4" d="M1536.89,430.74c-.1,3.52-1.41,4-4.4,3.95-18-.11-36-.05-54-.05-17.82,0-35.64-.08-53.46.07-3.08,0-3.89-.81-3.91-3.88q-.18-32.43-.79-64.86c-.07-3.54.57-4.81,4.52-4.79q53.46.26,106.93,0c4.36,0,4.11,2.05,4.4,5.1.34,3.77-1.53,4.06-4.42,4.05-27.31-.05-54.63.05-82-.15-4.23,0-6.13.77-5.54,5.39a45.52,45.52,0,0,1,0,10c-.35,3.59,1,4.38,4.41,4.36,27.81-.15,55.63,0,83.44-.15,3.3,0,4.61.57,4.69,4.28.1,4.09-1.29,4.87-5.07,4.85-27.49-.14-55,0-82.45-.16-3.91,0-5.35,1-5,5a149.18,149.18,0,0,1,.52,17.43c-.13,3.91,1.27,4.65,4.88,4.63,27.32-.15,54.64,0,82-.19C1535.82,425.54,1537,426.55,1536.89,430.74Z"/><path class="cls-4" d="M1031.05,366.09c0,5.1-2.64,4.64-6,4.63-25.81-.05-51.62.06-77.43-.12-3.92,0-5.8.57-5.27,5,.56,4.76-1.94,11.08.87,14,3.06,3.17,9.45,1,14.37,1,18.82.13,37.64.24,56.45-.07,5.21-.09,4.35,3.15,4.71,6.05.51,4.14-2.57,2.92-4.63,2.92-22,0-44,.12-65.94-.07-4.13,0-5.5,1.09-5.32,5.31.39,8.81.18,17.64.4,26.45.07,2.83-.84,3.8-3.71,3.69-5.66-.21-11.33-.24-17,0-2.75.1-3.31-.9-3.31-3.41q0-26.47-.3-52.93c0-4.15-.13-8.32-.54-12.44-.36-3.66,1.15-4.4,4.53-4.37,17.31.16,34.63.08,52,.08,16.82,0,33.63,0,50.45,0C1028.47,361.77,1031,361.2,1031.05,366.09Z"/><path class="cls-4" d="M1397.41,365.44c0,3.45-.86,4.5-4.43,4.47-17.82-.18-35.64,0-53.46-.15-3.64,0-4.87.73-4.79,4.62.25,12.32-.22,24.65.14,37,.19,6.45.68,12.9.78,19.38,0,3.08-1,4.09-4.05,4-5.15-.2-10.33-.26-15.48,0-3.5.19-4.48-.91-4.46-4.43.13-18.47-.12-36.95,0-55.43,0-3.84-.87-5.17-5-5.11-17.66.23-35.31.1-53,.07-2.49,0-5.17,1-5.09-3.65.06-4.09,1.67-4.59,5-4.57,23.15.08,46.3,0,69.46,0h69C1394.7,361.64,1397.42,361.08,1397.41,365.44Z"/><path class="cls-5" d="M1116.06,434.74h-31c-10.32,0-20.64-.09-31,.07-3,0-4-.95-4.07-4-.1-3.27,1.25-4,4.11-3.87,5,.14,10-.06,15,.07,2.66.07,3.81-.53,3.76-3.61q-.39-25-.29-49.93c0-3.52-1.28-4.17-4.37-4-5.15.22-10.32-.07-15.48.15-3.26.13-3.29-1.73-3.38-4.1s.48-3.76,3.23-3.75q31.73.08,63.44,0c3.88,0,2.33,2.77,2.59,4.58.32,2.16-.24,3.32-2.92,3.2-5.32-.22-10.65.11-16,0-2.64-.08-3.43.82-3.41,3.42q.2,25.46.13,50.93c0,3,1.14,3.47,4,3.29,5.29-.34,10.63,0,15.94-.15,4.22-.1,3,2.91,3.24,5.18C1119.94,435.21,1117.83,434.74,1116.06,434.74Z"/><path class="cls-6" d="M1268.83,430.24c.06,4-1.39,4.51-4.87,4.47-16.66-.17-33.32-.07-50-.07s-33.33-.08-50,.07c-3.22,0-4.62-.4-4.58-4.18.19-21.82.15-43.65,0-65.47,0-3.05.74-4.08,3.86-3.9a114.56,114.56,0,0,0,14,0c4.07-.26,5.46,1,5.4,5.26-.24,18,.07,36-.22,54-.07,4.57,1.35,5.47,5.62,5.43,25.33-.2,50.66,0,76-.19C1267.74,425.6,1268.77,426.44,1268.83,430.24Z"/><path class="cls-7" d="M1385.56,71.5c-11.33,0-22.66-.08-34,0-3.08,0-4.37-.62-4.33-4.14q.27-27,0-53.95c0-3.61,1.17-4.41,4.56-4.39q33.74.19,67.47,0c3.16,0,4.34.73,4.31,4.14q-.24,27.24,0,54.46c0,3.18-1.08,3.93-4,3.89C1408.21,71.42,1396.88,71.5,1385.56,71.5Z"/></g></g></svg>